solid cylinder
  facet normal 0.0625 0.0 0
    outer loop
      vertex 0.0625 0.0 -0.05
      vertex 0.06215761846051708 0.006533028954228341 -0.05
      vertex 0.06215761846051708 0.006533028954228341 0.05
    endloop
  endfacet
  facet normal 0.0625 0.0 0
    outer loop
      vertex 0.0625 0.0 -0.05
      vertex 0.06215761846051708 0.006533028954228341 0.05
      vertex 0.0625 0.0 0.05
    endloop
  endfacet
  facet normal 0 0 -1
    outer loop
      vertex 0 0 -0.05
      vertex 0.06215761846051708 0.006533028954228341 -0.05
      vertex 0.0625 0.0 -0.05
    endloop
  endfacet
  facet normal 0 0 1
    outer loop
      vertex 0 0 0.05
      vertex 0.0625 0.0 0.05
      vertex 0.06215761846051708 0.006533028954228341 0.05
    endloop
  endfacet
  facet normal 0.06215761846051708 0.006533028954228341 0
    outer loop
      vertex 0.06215761846051708 0.006533028954228341 -0.05
      vertex 0.061134225045862856 0.012994480676109957 -0.05
      vertex 0.061134225045862856 0.012994480676109957 0.05
    endloop
  endfacet
  facet normal 0.06215761846051708 0.006533028954228341 0
    outer loop
      vertex 0.06215761846051708 0.006533028954228341 -0.05
      vertex 0.061134225045862856 0.012994480676109957 0.05
      vertex 0.06215761846051708 0.006533028954228341 0.05
    endloop
  endfacet
  facet normal 0 0 -1
    outer loop
      vertex 0 0 -0.05
      vertex 0.061134225045862856 0.012994480676109957 -0.05
      vertex 0.06215761846051708 0.006533028954228341 -0.05
    endloop
  endfacet
  facet normal 0 0 1
    outer loop
      vertex 0 0 0.05
      vertex 0.06215761846051708 0.006533028954228341 0.05
      vertex 0.061134225045862856 0.012994480676109957 0.05
    endloop
  endfacet
  facet normal 0.061134225045862856 0.012994480676109957 0
    outer loop
      vertex 0.061134225045862856 0.012994480676109957 -0.05
      vertex 0.059441032268447096 0.019313562148434212 -0.05
      vertex 0.059441032268447096 0.019313562148434212 0.05
    endloop
  endfacet
  facet normal 0.061134225045862856 0.012994480676109957 0
    outer loop
      vertex 0.061134225045862856 0.012994480676109957 -0.05
      vertex 0.059441032268447096 0.019313562148434212 0.05
      vertex 0.061134225045862856 0.012994480676109957 0.05
    endloop
  endfacet
  facet normal 0 0 -1
    outer loop
      vertex 0 0 -0.05
      vertex 0.059441032268447096 0.019313562148434212 -0.05
      vertex 0.061134225045862856 0.012994480676109957 -0.05
    endloop
  endfacet
  facet normal 0 0 1
    outer loop
      vertex 0 0 0.05
      vertex 0.061134225045862856 0.012994480676109957 0.05
      vertex 0.059441032268447096 0.019313562148434212 0.05
    endloop
  endfacet
  facet normal 0.059441032268447096 0.019313562148434212 0
    outer loop
      vertex 0.059441032268447096 0.019313562148434212 -0.05
      vertex 0.057096591102662554 0.02542104019223751 -0.05
      vertex 0.057096591102662554 0.02542104019223751 0.05
    endloop
  endfacet
  facet normal 0.059441032268447096 0.019313562148434212 0
    outer loop
      vertex 0.059441032268447096 0.019313562148434212 -0.05
      vertex 0.057096591102662554 0.02542104019223751 0.05
      vertex 0.059441032268447096 0.019313562148434212 0.05
    endloop
  endfacet
  facet normal 0 0 -1
    outer loop
      vertex 0 0 -0.05
      vertex 0.057096591102662554 0.02542104019223751 -0.05
      vertex 0.059441032268447096 0.019313562148434212 -0.05
    endloop
  endfacet
  facet normal 0 0 1
    outer loop
      vertex 0 0 0.05
      vertex 0.059441032268447096 0.019313562148434212 0.05
      vertex 0.057096591102662554 0.02542104019223751 0.05
    endloop
  endfacet
  facet normal 0.057096591102662554 0.02542104019223751 0
    outer loop
      vertex 0.057096591102662554 0.02542104019223751 -0.05
      vertex 0.05412658773652742 0.031249999999999997 -0.05
      vertex 0.05412658773652742 0.031249999999999997 0.05
    endloop
  endfacet
  facet normal 0.057096591102662554 0.02542104019223751 0
    outer loop
      vertex 0.057096591102662554 0.02542104019223751 -0.05
      vertex 0.05412658773652742 0.031249999999999997 0.05
      vertex 0.057096591102662554 0.02542104019223751 0.05
    endloop
  endfacet
  facet normal 0 0 -1
    outer loop
      vertex 0 0 -0.05
      vertex 0.05412658773652742 0.031249999999999997 -0.05
      vertex 0.057096591102662554 0.02542104019223751 -0.05
    endloop
  endfacet
  facet normal 0 0 1
    outer loop
      vertex 0 0 0.05
      vertex 0.057096591102662554 0.02542104019223751 0.05
      vertex 0.05412658773652742 0.031249999999999997 0.05
    endloop
  endfacet
  facet normal 0.05412658773652742 0.031249999999999997 0
    outer loop
      vertex 0.05412658773652742 0.031249999999999997 -0.05
      vertex 0.050563562148434216 0.03673657826827957 -0.05
      vertex 0.050563562148434216 0.03673657826827957 0.05
    endloop
  endfacet
  facet normal 0.05412658773652742 0.031249999999999997 0
    outer loop
      vertex 0.05412658773652742 0.031249999999999997 -0.05
      vertex 0.050563562148434216 0.03673657826827957 0.05
      vertex 0.05412658773652742 0.031249999999999997 0.05
    endloop
  endfacet
  facet normal 0 0 -1
    outer loop
      vertex 0 0 -0.05
      vertex 0.050563562148434216 0.03673657826827957 -0.05
      vertex 0.05412658773652742 0.031249999999999997 -0.05
    endloop
  endfacet
  facet normal 0 0 1
    outer loop
      vertex 0 0 0.05
      vertex 0.05412658773652742 0.031249999999999997 0.05
      vertex 0.050563562148434216 0.03673657826827957 0.05
    endloop
  endfacet
  facet normal 0.050563562148434216 0.03673657826827957 0
    outer loop
      vertex 0.050563562148434216 0.03673657826827957 -0.05
      vertex 0.04644655159233714 0.04182066289742864 -0.05
      vertex 0.04644655159233714 0.04182066289742864 0.05
    endloop
  endfacet
  facet normal 0.050563562148434216 0.03673657826827957 0
    outer loop
      vertex 0.050563562148434216 0.03673657826827957 -0.05
      vertex 0.04644655159233714 0.04182066289742864 0.05
      vertex 0.050563562148434216 0.03673657826827957 0.05
    endloop
  endfacet
  facet normal 0 0 -1
    outer loop
      vertex 0 0 -0.05
      vertex 0.04644655159233714 0.04182066289742864 -0.05
      vertex 0.050563562148434216 0.03673657826827957 -0.05
    endloop
  endfacet
  facet normal 0 0 1
    outer loop
      vertex 0 0 0.05
      vertex 0.050563562148434216 0.03673657826827957 0.05
      vertex 0.04644655159233714 0.04182066289742864 0.05
    endloop
  endfacet
  facet normal 0.04644655159233714 0.04182066289742864 0
    outer loop
      vertex 0.04644655159233714 0.04182066289742864 -0.05
      vertex 0.04182066289742864 0.04644655159233714 -0.05
      vertex 0.04182066289742864 0.04644655159233714 0.05
    endloop
  endfacet
  facet normal 0.04644655159233714 0.04182066289742864 0
    outer loop
      vertex 0.04644655159233714 0.04182066289742864 -0.05
      vertex 0.04182066289742864 0.04644655159233714 0.05
      vertex 0.04644655159233714 0.04182066289742864 0.05
    endloop
  endfacet
  facet normal 0 0 -1
    outer loop
      vertex 0 0 -0.05
      vertex 0.04182066289742864 0.04644655159233714 -0.05
      vertex 0.04644655159233714 0.04182066289742864 -0.05
    endloop
  endfacet
  facet normal 0 0 1
    outer loop
      vertex 0 0 0.05
      vertex 0.04644655159233714 0.04182066289742864 0.05
      vertex 0.04182066289742864 0.04644655159233714 0.05
    endloop
  endfacet
  facet normal 0.04182066289742864 0.04644655159233714 0
    outer loop
      vertex 0.04182066289742864 0.04644655159233714 -0.05
      vertex 0.03673657826827957 0.050563562148434216 -0.05
      vertex 0.03673657826827957 0.050563562148434216 0.05
    endloop
  endfacet
  facet normal 0.04182066289742864 0.04644655159233714 0
    outer loop
      vertex 0.04182066289742864 0.04644655159233714 -0.05
      vertex 0.03673657826827957 0.050563562148434216 0.05
      vertex 0.04182066289742864 0.04644655159233714 0.05
    endloop
  endfacet
  facet normal 0 0 -1
    outer loop
      vertex 0 0 -0.05
      vertex 0.03673657826827957 0.050563562148434216 -0.05
      vertex 0.04182066289742864 0.04644655159233714 -0.05
    endloop
  endfacet
  facet normal 0 0 1
    outer loop
      vertex 0 0 0.05
      vertex 0.04182066289742864 0.04644655159233714 0.05
      vertex 0.03673657826827957 0.050563562148434216 0.05
    endloop
  endfacet
  facet normal 0.03673657826827957 0.050563562148434216 0
    outer loop
      vertex 0.03673657826827957 0.050563562148434216 -0.05
      vertex 0.03125000000000001 0.05412658773652741 -0.05
      vertex 0.03125000000000001 0.05412658773652741 0.05
    endloop
  endfacet
  facet normal 0.03673657826827957 0.050563562148434216 0
    outer loop
      vertex 0.03673657826827957 0.050563562148434216 -0.05
      vertex 0.03125000000000001 0.05412658773652741 0.05
      vertex 0.03673657826827957 0.050563562148434216 0.05
    endloop
  endfacet
  facet normal 0 0 -1
    outer loop
      vertex 0 0 -0.05
      vertex 0.03125000000000001 0.05412658773652741 -0.05
      vertex 0.03673657826827957 0.050563562148434216 -0.05
    endloop
  endfacet
  facet normal 0 0 1
    outer loop
      vertex 0 0 0.05
      vertex 0.03673657826827957 0.050563562148434216 0.05
      vertex 0.03125000000000001 0.05412658773652741 0.05
    endloop
  endfacet
  facet normal 0.03125000000000001 0.05412658773652741 0
    outer loop
      vertex 0.03125000000000001 0.05412658773652741 -0.05
      vertex 0.025421040192237523 0.05709659110266255 -0.05
      vertex 0.025421040192237523 0.05709659110266255 0.05
    endloop
  endfacet
  facet normal 0.03125000000000001 0.05412658773652741 0
    outer loop
      vertex 0.03125000000000001 0.05412658773652741 -0.05
      vertex 0.025421040192237523 0.05709659110266255 0.05
      vertex 0.03125000000000001 0.05412658773652741 0.05
    endloop
  endfacet
  facet normal 0 0 -1
    outer loop
      vertex 0 0 -0.05
      vertex 0.025421040192237523 0.05709659110266255 -0.05
      vertex 0.03125000000000001 0.05412658773652741 -0.05
    endloop
  endfacet
  facet normal 0 0 1
    outer loop
      vertex 0 0 0.05
      vertex 0.03125000000000001 0.05412658773652741 0.05
      vertex 0.025421040192237523 0.05709659110266255 0.05
    endloop
  endfacet
  facet normal 0.025421040192237523 0.05709659110266255 0
    outer loop
      vertex 0.025421040192237523 0.05709659110266255 -0.05
      vertex 0.019313562148434216 0.059441032268447096 -0.05
      vertex 0.019313562148434216 0.059441032268447096 0.05
    endloop
  endfacet
  facet normal 0.025421040192237523 0.05709659110266255 0
    outer loop
      vertex 0.025421040192237523 0.05709659110266255 -0.05
      vertex 0.019313562148434216 0.059441032268447096 0.05
      vertex 0.025421040192237523 0.05709659110266255 0.05
    endloop
  endfacet
  facet normal 0 0 -1
    outer loop
      vertex 0 0 -0.05
      vertex 0.019313562148434216 0.059441032268447096 -0.05
      vertex 0.025421040192237523 0.05709659110266255 -0.05
    endloop
  endfacet
  facet normal 0 0 1
    outer loop
      vertex 0 0 0.05
      vertex 0.025421040192237523 0.05709659110266255 0.05
      vertex 0.019313562148434216 0.059441032268447096 0.05
    endloop
  endfacet
  facet normal 0.019313562148434216 0.059441032268447096 0
    outer loop
      vertex 0.019313562148434216 0.059441032268447096 -0.05
      vertex 0.012994480676109952 0.061134225045862856 -0.05
      vertex 0.012994480676109952 0.061134225045862856 0.05
    endloop
  endfacet
  facet normal 0.019313562148434216 0.059441032268447096 0
    outer loop
      vertex 0.019313562148434216 0.059441032268447096 -0.05
      vertex 0.012994480676109952 0.061134225045862856 0.05
      vertex 0.019313562148434216 0.059441032268447096 0.05
    endloop
  endfacet
  facet normal 0 0 -1
    outer loop
      vertex 0 0 -0.05
      vertex 0.012994480676109952 0.061134225045862856 -0.05
      vertex 0.019313562148434216 0.059441032268447096 -0.05
    endloop
  endfacet
  facet normal 0 0 1
    outer loop
      vertex 0 0 0.05
      vertex 0.019313562148434216 0.059441032268447096 0.05
      vertex 0.012994480676109952 0.061134225045862856 0.05
    endloop
  endfacet
  facet normal 0.012994480676109952 0.061134225045862856 0
    outer loop
      vertex 0.012994480676109952 0.061134225045862856 -0.05
      vertex 0.006533028954228341 0.06215761846051708 -0.05
      vertex 0.006533028954228341 0.06215761846051708 0.05
    endloop
  endfacet
  facet normal 0.012994480676109952 0.061134225045862856 0
    outer loop
      vertex 0.012994480676109952 0.061134225045862856 -0.05
      vertex 0.006533028954228341 0.06215761846051708 0.05
      vertex 0.012994480676109952 0.061134225045862856 0.05
    endloop
  endfacet
  facet normal 0 0 -1
    outer loop
      vertex 0 0 -0.05
      vertex 0.006533028954228341 0.06215761846051708 -0.05
      vertex 0.012994480676109952 0.061134225045862856 -0.05
    endloop
  endfacet
  facet normal 0 0 1
    outer loop
      vertex 0 0 0.05
      vertex 0.012994480676109952 0.061134225045862856 0.05
      vertex 0.006533028954228341 0.06215761846051708 0.05
    endloop
  endfacet
  facet normal 0.006533028954228341 0.06215761846051708 0
    outer loop
      vertex 0.006533028954228341 0.06215761846051708 -0.05
      vertex 1.7704809055149936e-17 0.0625 -0.05
      vertex 1.7704809055149936e-17 0.0625 0.05
    endloop
  endfacet
  facet normal 0.006533028954228341 0.06215761846051708 0
    outer loop
      vertex 0.006533028954228341 0.06215761846051708 -0.05
      vertex 1.7704809055149936e-17 0.0625 0.05
      vertex 0.006533028954228341 0.06215761846051708 0.05
    endloop
  endfacet
  facet normal 0 0 -1
    outer loop
      vertex 0 0 -0.05
      vertex 1.7704809055149936e-17 0.0625 -0.05
      vertex 0.006533028954228341 0.06215761846051708 -0.05
    endloop
  endfacet
  facet normal 0 0 1
    outer loop
      vertex 0 0 0.05
      vertex 0.006533028954228341 0.06215761846051708 0.05
      vertex 1.7704809055149936e-17 0.0625 0.05
    endloop
  endfacet
  facet normal 1.7704809055149936e-17 0.0625 0
    outer loop
      vertex 1.7704809055149936e-17 0.0625 -0.05
      vertex -0.006533028954228333 0.06215761846051709 -0.05
      vertex -0.006533028954228333 0.06215761846051709 0.05
    endloop
  endfacet
  facet normal 1.7704809055149936e-17 0.0625 0
    outer loop
      vertex 1.7704809055149936e-17 0.0625 -0.05
      vertex -0.006533028954228333 0.06215761846051709 0.05
      vertex 1.7704809055149936e-17 0.0625 0.05
    endloop
  endfacet
  facet normal 0 0 -1
    outer loop
      vertex 0 0 -0.05
      vertex -0.006533028954228333 0.06215761846051709 -0.05
      vertex 1.7704809055149936e-17 0.0625 -0.05
    endloop
  endfacet
  facet normal 0 0 1
    outer loop
      vertex 0 0 0.05
      vertex 1.7704809055149936e-17 0.0625 0.05
      vertex -0.006533028954228333 0.06215761846051709 0.05
    endloop
  endfacet
  facet normal -0.006533028954228333 0.06215761846051709 0
    outer loop
      vertex -0.006533028954228333 0.06215761846051709 -0.05
      vertex -0.012994480676109959 0.061134225045862856 -0.05
      vertex -0.012994480676109959 0.061134225045862856 0.05
    endloop
  endfacet
  facet normal -0.006533028954228333 0.06215761846051709 0
    outer loop
      vertex -0.006533028954228333 0.06215761846051709 -0.05
      vertex -0.012994480676109959 0.061134225045862856 0.05
      vertex -0.006533028954228333 0.06215761846051709 0.05
    endloop
  endfacet
  facet normal 0 0 -1
    outer loop
      vertex 0 0 -0.05
      vertex -0.012994480676109959 0.061134225045862856 -0.05
      vertex -0.006533028954228333 0.06215761846051709 -0.05
    endloop
  endfacet
  facet normal 0 0 1
    outer loop
      vertex 0 0 0.05
      vertex -0.006533028954228333 0.06215761846051709 0.05
      vertex -0.012994480676109959 0.061134225045862856 0.05
    endloop
  endfacet
  facet normal -0.012994480676109959 0.061134225045862856 0
    outer loop
      vertex -0.012994480676109959 0.061134225045862856 -0.05
      vertex -0.01931356214843421 0.0594410322684471 -0.05
      vertex -0.01931356214843421 0.0594410322684471 0.05
    endloop
  endfacet
  facet normal -0.012994480676109959 0.061134225045862856 0
    outer loop
      vertex -0.012994480676109959 0.061134225045862856 -0.05
      vertex -0.01931356214843421 0.0594410322684471 0.05
      vertex -0.012994480676109959 0.061134225045862856 0.05
    endloop
  endfacet
  facet normal 0 0 -1
    outer loop
      vertex 0 0 -0.05
      vertex -0.01931356214843421 0.0594410322684471 -0.05
      vertex -0.012994480676109959 0.061134225045862856 -0.05
    endloop
  endfacet
  facet normal 0 0 1
    outer loop
      vertex 0 0 0.05
      vertex -0.012994480676109959 0.061134225045862856 0.05
      vertex -0.01931356214843421 0.0594410322684471 0.05
    endloop
  endfacet
  facet normal -0.01931356214843421 0.0594410322684471 0
    outer loop
      vertex -0.01931356214843421 0.0594410322684471 -0.05
      vertex -0.025421040192237503 0.05709659110266256 -0.05
      vertex -0.025421040192237503 0.05709659110266256 0.05
    endloop
  endfacet
  facet normal -0.01931356214843421 0.0594410322684471 0
    outer loop
      vertex -0.01931356214843421 0.0594410322684471 -0.05
      vertex -0.025421040192237503 0.05709659110266256 0.05
      vertex -0.01931356214843421 0.0594410322684471 0.05
    endloop
  endfacet
  facet normal 0 0 -1
    outer loop
      vertex 0 0 -0.05
      vertex -0.025421040192237503 0.05709659110266256 -0.05
      vertex -0.01931356214843421 0.0594410322684471 -0.05
    endloop
  endfacet
  facet normal 0 0 1
    outer loop
      vertex 0 0 0.05
      vertex -0.01931356214843421 0.0594410322684471 0.05
      vertex -0.025421040192237503 0.05709659110266256 0.05
    endloop
  endfacet
  facet normal -0.025421040192237503 0.05709659110266256 0
    outer loop
      vertex -0.025421040192237503 0.05709659110266256 -0.05
      vertex -0.03124999999999999 0.05412658773652742 -0.05
      vertex -0.03124999999999999 0.05412658773652742 0.05
    endloop
  endfacet
  facet normal -0.025421040192237503 0.05709659110266256 0
    outer loop
      vertex -0.025421040192237503 0.05709659110266256 -0.05
      vertex -0.03124999999999999 0.05412658773652742 0.05
      vertex -0.025421040192237503 0.05709659110266256 0.05
    endloop
  endfacet
  facet normal 0 0 -1
    outer loop
      vertex 0 0 -0.05
      vertex -0.03124999999999999 0.05412658773652742 -0.05
      vertex -0.025421040192237503 0.05709659110266256 -0.05
    endloop
  endfacet
  facet normal 0 0 1
    outer loop
      vertex 0 0 0.05
      vertex -0.025421040192237503 0.05709659110266256 0.05
      vertex -0.03124999999999999 0.05412658773652742 0.05
    endloop
  endfacet
  facet normal -0.03124999999999999 0.05412658773652742 0
    outer loop
      vertex -0.03124999999999999 0.05412658773652742 -0.05
      vertex -0.036736578268279564 0.050563562148434216 -0.05
      vertex -0.036736578268279564 0.050563562148434216 0.05
    endloop
  endfacet
  facet normal -0.03124999999999999 0.05412658773652742 0
    outer loop
      vertex -0.03124999999999999 0.05412658773652742 -0.05
      vertex -0.036736578268279564 0.050563562148434216 0.05
      vertex -0.03124999999999999 0.05412658773652742 0.05
    endloop
  endfacet
  facet normal 0 0 -1
    outer loop
      vertex 0 0 -0.05
      vertex -0.036736578268279564 0.050563562148434216 -0.05
      vertex -0.03124999999999999 0.05412658773652742 -0.05
    endloop
  endfacet
  facet normal 0 0 1
    outer loop
      vertex 0 0 0.05
      vertex -0.03124999999999999 0.05412658773652742 0.05
      vertex -0.036736578268279564 0.050563562148434216 0.05
    endloop
  endfacet
  facet normal -0.036736578268279564 0.050563562148434216 0
    outer loop
      vertex -0.036736578268279564 0.050563562148434216 -0.05
      vertex -0.04182066289742862 0.046446551592337154 -0.05
      vertex -0.04182066289742862 0.046446551592337154 0.05
    endloop
  endfacet
  facet normal -0.036736578268279564 0.050563562148434216 0
    outer loop
      vertex -0.036736578268279564 0.050563562148434216 -0.05
      vertex -0.04182066289742862 0.046446551592337154 0.05
      vertex -0.036736578268279564 0.050563562148434216 0.05
    endloop
  endfacet
  facet normal 0 0 -1
    outer loop
      vertex 0 0 -0.05
      vertex -0.04182066289742862 0.046446551592337154 -0.05
      vertex -0.036736578268279564 0.050563562148434216 -0.05
    endloop
  endfacet
  facet normal 0 0 1
    outer loop
      vertex 0 0 0.05
      vertex -0.036736578268279564 0.050563562148434216 0.05
      vertex -0.04182066289742862 0.046446551592337154 0.05
    endloop
  endfacet
  facet normal -0.04182066289742862 0.046446551592337154 0
    outer loop
      vertex -0.04182066289742862 0.046446551592337154 -0.05
      vertex -0.046446551592337126 0.041820662897428654 -0.05
      vertex -0.046446551592337126 0.041820662897428654 0.05
    endloop
  endfacet
  facet normal -0.04182066289742862 0.046446551592337154 0
    outer loop
      vertex -0.04182066289742862 0.046446551592337154 -0.05
      vertex -0.046446551592337126 0.041820662897428654 0.05
      vertex -0.04182066289742862 0.046446551592337154 0.05
    endloop
  endfacet
  facet normal 0 0 -1
    outer loop
      vertex 0 0 -0.05
      vertex -0.046446551592337126 0.041820662897428654 -0.05
      vertex -0.04182066289742862 0.046446551592337154 -0.05
    endloop
  endfacet
  facet normal 0 0 1
    outer loop
      vertex 0 0 0.05
      vertex -0.04182066289742862 0.046446551592337154 0.05
      vertex -0.046446551592337126 0.041820662897428654 0.05
    endloop
  endfacet
  facet normal -0.046446551592337126 0.041820662897428654 0
    outer loop
      vertex -0.046446551592337126 0.041820662897428654 -0.05
      vertex -0.05056356214843421 0.03673657826827958 -0.05
      vertex -0.05056356214843421 0.03673657826827958 0.05
    endloop
  endfacet
  facet normal -0.046446551592337126 0.041820662897428654 0
    outer loop
      vertex -0.046446551592337126 0.041820662897428654 -0.05
      vertex -0.05056356214843421 0.03673657826827958 0.05
      vertex -0.046446551592337126 0.041820662897428654 0.05
    endloop
  endfacet
  facet normal 0 0 -1
    outer loop
      vertex 0 0 -0.05
      vertex -0.05056356214843421 0.03673657826827958 -0.05
      vertex -0.046446551592337126 0.041820662897428654 -0.05
    endloop
  endfacet
  facet normal 0 0 1
    outer loop
      vertex 0 0 0.05
      vertex -0.046446551592337126 0.041820662897428654 0.05
      vertex -0.05056356214843421 0.03673657826827958 0.05
    endloop
  endfacet
  facet normal -0.05056356214843421 0.03673657826827958 0
    outer loop
      vertex -0.05056356214843421 0.03673657826827958 -0.05
      vertex -0.05412658773652742 0.031249999999999997 -0.05
      vertex -0.05412658773652742 0.031249999999999997 0.05
    endloop
  endfacet
  facet normal -0.05056356214843421 0.03673657826827958 0
    outer loop
      vertex -0.05056356214843421 0.03673657826827958 -0.05
      vertex -0.05412658773652742 0.031249999999999997 0.05
      vertex -0.05056356214843421 0.03673657826827958 0.05
    endloop
  endfacet
  facet normal 0 0 -1
    outer loop
      vertex 0 0 -0.05
      vertex -0.05412658773652742 0.031249999999999997 -0.05
      vertex -0.05056356214843421 0.03673657826827958 -0.05
    endloop
  endfacet
  facet normal 0 0 1
    outer loop
      vertex 0 0 0.05
      vertex -0.05056356214843421 0.03673657826827958 0.05
      vertex -0.05412658773652742 0.031249999999999997 0.05
    endloop
  endfacet
  facet normal -0.05412658773652742 0.031249999999999997 0
    outer loop
      vertex -0.05412658773652742 0.031249999999999997 -0.05
      vertex -0.05709659110266256 0.025421040192237503 -0.05
      vertex -0.05709659110266256 0.025421040192237503 0.05
    endloop
  endfacet
  facet normal -0.05412658773652742 0.031249999999999997 0
    outer loop
      vertex -0.05412658773652742 0.031249999999999997 -0.05
      vertex -0.05709659110266256 0.025421040192237503 0.05
      vertex -0.05412658773652742 0.031249999999999997 0.05
    endloop
  endfacet
  facet normal 0 0 -1
    outer loop
      vertex 0 0 -0.05
      vertex -0.05709659110266256 0.025421040192237503 -0.05
      vertex -0.05412658773652742 0.031249999999999997 -0.05
    endloop
  endfacet
  facet normal 0 0 1
    outer loop
      vertex 0 0 0.05
      vertex -0.05412658773652742 0.031249999999999997 0.05
      vertex -0.05709659110266256 0.025421040192237503 0.05
    endloop
  endfacet
  facet normal -0.05709659110266256 0.025421040192237503 0
    outer loop
      vertex -0.05709659110266256 0.025421040192237503 -0.05
      vertex -0.059441032268447096 0.01931356214843422 -0.05
      vertex -0.059441032268447096 0.01931356214843422 0.05
    endloop
  endfacet
  facet normal -0.05709659110266256 0.025421040192237503 0
    outer loop
      vertex -0.05709659110266256 0.025421040192237503 -0.05
      vertex -0.059441032268447096 0.01931356214843422 0.05
      vertex -0.05709659110266256 0.025421040192237503 0.05
    endloop
  endfacet
  facet normal 0 0 -1
    outer loop
      vertex 0 0 -0.05
      vertex -0.059441032268447096 0.01931356214843422 -0.05
      vertex -0.05709659110266256 0.025421040192237503 -0.05
    endloop
  endfacet
  facet normal 0 0 1
    outer loop
      vertex 0 0 0.05
      vertex -0.05709659110266256 0.025421040192237503 0.05
      vertex -0.059441032268447096 0.01931356214843422 0.05
    endloop
  endfacet
  facet normal -0.059441032268447096 0.01931356214843422 0
    outer loop
      vertex -0.059441032268447096 0.01931356214843422 -0.05
      vertex -0.061134225045862856 0.012994480676109957 -0.05
      vertex -0.061134225045862856 0.012994480676109957 0.05
    endloop
  endfacet
  facet normal -0.059441032268447096 0.01931356214843422 0
    outer loop
      vertex -0.059441032268447096 0.01931356214843422 -0.05
      vertex -0.061134225045862856 0.012994480676109957 0.05
      vertex -0.059441032268447096 0.01931356214843422 0.05
    endloop
  endfacet
  facet normal 0 0 -1
    outer loop
      vertex 0 0 -0.05
      vertex -0.061134225045862856 0.012994480676109957 -0.05
      vertex -0.059441032268447096 0.01931356214843422 -0.05
    endloop
  endfacet
  facet normal 0 0 1
    outer loop
      vertex 0 0 0.05
      vertex -0.059441032268447096 0.01931356214843422 0.05
      vertex -0.061134225045862856 0.012994480676109957 0.05
    endloop
  endfacet
  facet normal -0.061134225045862856 0.012994480676109957 0
    outer loop
      vertex -0.061134225045862856 0.012994480676109957 -0.05
      vertex -0.06215761846051709 0.006533028954228331 -0.05
      vertex -0.06215761846051709 0.006533028954228331 0.05
    endloop
  endfacet
  facet normal -0.061134225045862856 0.012994480676109957 0
    outer loop
      vertex -0.061134225045862856 0.012994480676109957 -0.05
      vertex -0.06215761846051709 0.006533028954228331 0.05
      vertex -0.061134225045862856 0.012994480676109957 0.05
    endloop
  endfacet
  facet normal 0 0 -1
    outer loop
      vertex 0 0 -0.05
      vertex -0.06215761846051709 0.006533028954228331 -0.05
      vertex -0.061134225045862856 0.012994480676109957 -0.05
    endloop
  endfacet
  facet normal 0 0 1
    outer loop
      vertex 0 0 0.05
      vertex -0.061134225045862856 0.012994480676109957 0.05
      vertex -0.06215761846051709 0.006533028954228331 0.05
    endloop
  endfacet
  facet normal -0.06215761846051709 0.006533028954228331 0
    outer loop
      vertex -0.06215761846051709 0.006533028954228331 -0.05
      vertex -0.0625 3.540961811029987e-17 -0.05
      vertex -0.0625 3.540961811029987e-17 0.05
    endloop
  endfacet
  facet normal -0.06215761846051709 0.006533028954228331 0
    outer loop
      vertex -0.06215761846051709 0.006533028954228331 -0.05
      vertex -0.0625 3.540961811029987e-17 0.05
      vertex -0.06215761846051709 0.006533028954228331 0.05
    endloop
  endfacet
  facet normal 0 0 -1
    outer loop
      vertex 0 0 -0.05
      vertex -0.0625 3.540961811029987e-17 -0.05
      vertex -0.06215761846051709 0.006533028954228331 -0.05
    endloop
  endfacet
  facet normal 0 0 1
    outer loop
      vertex 0 0 0.05
      vertex -0.06215761846051709 0.006533028954228331 0.05
      vertex -0.0625 3.540961811029987e-17 0.05
    endloop
  endfacet
  facet normal -0.0625 3.540961811029987e-17 0
    outer loop
      vertex -0.0625 3.540961811029987e-17 -0.05
      vertex -0.06215761846051709 -0.006533028954228316 -0.05
      vertex -0.06215761846051709 -0.006533028954228316 0.05
    endloop
  endfacet
  facet normal -0.0625 3.540961811029987e-17 0
    outer loop
      vertex -0.0625 3.540961811029987e-17 -0.05
      vertex -0.06215761846051709 -0.006533028954228316 0.05
      vertex -0.0625 3.540961811029987e-17 0.05
    endloop
  endfacet
  facet normal 0 0 -1
    outer loop
      vertex 0 0 -0.05
      vertex -0.06215761846051709 -0.006533028954228316 -0.05
      vertex -0.0625 3.540961811029987e-17 -0.05
    endloop
  endfacet
  facet normal 0 0 1
    outer loop
      vertex 0 0 0.05
      vertex -0.0625 3.540961811029987e-17 0.05
      vertex -0.06215761846051709 -0.006533028954228316 0.05
    endloop
  endfacet
  facet normal -0.06215761846051709 -0.006533028954228316 0
    outer loop
      vertex -0.06215761846051709 -0.006533028954228316 -0.05
      vertex -0.061134225045862856 -0.012994480676109942 -0.05
      vertex -0.061134225045862856 -0.012994480676109942 0.05
    endloop
  endfacet
  facet normal -0.06215761846051709 -0.006533028954228316 0
    outer loop
      vertex -0.06215761846051709 -0.006533028954228316 -0.05
      vertex -0.061134225045862856 -0.012994480676109942 0.05
      vertex -0.06215761846051709 -0.006533028954228316 0.05
    endloop
  endfacet
  facet normal 0 0 -1
    outer loop
      vertex 0 0 -0.05
      vertex -0.061134225045862856 -0.012994480676109942 -0.05
      vertex -0.06215761846051709 -0.006533028954228316 -0.05
    endloop
  endfacet
  facet normal 0 0 1
    outer loop
      vertex 0 0 0.05
      vertex -0.06215761846051709 -0.006533028954228316 0.05
      vertex -0.061134225045862856 -0.012994480676109942 0.05
    endloop
  endfacet
  facet normal -0.061134225045862856 -0.012994480676109942 0
    outer loop
      vertex -0.061134225045862856 -0.012994480676109942 -0.05
      vertex -0.0594410322684471 -0.019313562148434205 -0.05
      vertex -0.0594410322684471 -0.019313562148434205 0.05
    endloop
  endfacet
  facet normal -0.061134225045862856 -0.012994480676109942 0
    outer loop
      vertex -0.061134225045862856 -0.012994480676109942 -0.05
      vertex -0.0594410322684471 -0.019313562148434205 0.05
      vertex -0.061134225045862856 -0.012994480676109942 0.05
    endloop
  endfacet
  facet normal 0 0 -1
    outer loop
      vertex 0 0 -0.05
      vertex -0.0594410322684471 -0.019313562148434205 -0.05
      vertex -0.061134225045862856 -0.012994480676109942 -0.05
    endloop
  endfacet
  facet normal 0 0 1
    outer loop
      vertex 0 0 0.05
      vertex -0.061134225045862856 -0.012994480676109942 0.05
      vertex -0.0594410322684471 -0.019313562148434205 0.05
    endloop
  endfacet
  facet normal -0.0594410322684471 -0.019313562148434205 0
    outer loop
      vertex -0.0594410322684471 -0.019313562148434205 -0.05
      vertex -0.057096591102662554 -0.025421040192237513 -0.05
      vertex -0.057096591102662554 -0.025421040192237513 0.05
    endloop
  endfacet
  facet normal -0.0594410322684471 -0.019313562148434205 0
    outer loop
      vertex -0.0594410322684471 -0.019313562148434205 -0.05
      vertex -0.057096591102662554 -0.025421040192237513 0.05
      vertex -0.0594410322684471 -0.019313562148434205 0.05
    endloop
  endfacet
  facet normal 0 0 -1
    outer loop
      vertex 0 0 -0.05
      vertex -0.057096591102662554 -0.025421040192237513 -0.05
      vertex -0.0594410322684471 -0.019313562148434205 -0.05
    endloop
  endfacet
  facet normal 0 0 1
    outer loop
      vertex 0 0 0.05
      vertex -0.0594410322684471 -0.019313562148434205 0.05
      vertex -0.057096591102662554 -0.025421040192237513 0.05
    endloop
  endfacet
  facet normal -0.057096591102662554 -0.025421040192237513 0
    outer loop
      vertex -0.057096591102662554 -0.025421040192237513 -0.05
      vertex -0.054126587736527426 -0.031249999999999986 -0.05
      vertex -0.054126587736527426 -0.031249999999999986 0.05
    endloop
  endfacet
  facet normal -0.057096591102662554 -0.025421040192237513 0
    outer loop
      vertex -0.057096591102662554 -0.025421040192237513 -0.05
      vertex -0.054126587736527426 -0.031249999999999986 0.05
      vertex -0.057096591102662554 -0.025421040192237513 0.05
    endloop
  endfacet
  facet normal 0 0 -1
    outer loop
      vertex 0 0 -0.05
      vertex -0.054126587736527426 -0.031249999999999986 -0.05
      vertex -0.057096591102662554 -0.025421040192237513 -0.05
    endloop
  endfacet
  facet normal 0 0 1
    outer loop
      vertex 0 0 0.05
      vertex -0.057096591102662554 -0.025421040192237513 0.05
      vertex -0.054126587736527426 -0.031249999999999986 0.05
    endloop
  endfacet
  facet normal -0.054126587736527426 -0.031249999999999986 0
    outer loop
      vertex -0.054126587736527426 -0.031249999999999986 -0.05
      vertex -0.050563562148434216 -0.036736578268279564 -0.05
      vertex -0.050563562148434216 -0.036736578268279564 0.05
    endloop
  endfacet
  facet normal -0.054126587736527426 -0.031249999999999986 0
    outer loop
      vertex -0.054126587736527426 -0.031249999999999986 -0.05
      vertex -0.050563562148434216 -0.036736578268279564 0.05
      vertex -0.054126587736527426 -0.031249999999999986 0.05
    endloop
  endfacet
  facet normal 0 0 -1
    outer loop
      vertex 0 0 -0.05
      vertex -0.050563562148434216 -0.036736578268279564 -0.05
      vertex -0.054126587736527426 -0.031249999999999986 -0.05
    endloop
  endfacet
  facet normal 0 0 1
    outer loop
      vertex 0 0 0.05
      vertex -0.054126587736527426 -0.031249999999999986 0.05
      vertex -0.050563562148434216 -0.036736578268279564 0.05
    endloop
  endfacet
  facet normal -0.050563562148434216 -0.036736578268279564 0
    outer loop
      vertex -0.050563562148434216 -0.036736578268279564 -0.05
      vertex -0.04644655159233714 -0.04182066289742864 -0.05
      vertex -0.04644655159233714 -0.04182066289742864 0.05
    endloop
  endfacet
  facet normal -0.050563562148434216 -0.036736578268279564 0
    outer loop
      vertex -0.050563562148434216 -0.036736578268279564 -0.05
      vertex -0.04644655159233714 -0.04182066289742864 0.05
      vertex -0.050563562148434216 -0.036736578268279564 0.05
    endloop
  endfacet
  facet normal 0 0 -1
    outer loop
      vertex 0 0 -0.05
      vertex -0.04644655159233714 -0.04182066289742864 -0.05
      vertex -0.050563562148434216 -0.036736578268279564 -0.05
    endloop
  endfacet
  facet normal 0 0 1
    outer loop
      vertex 0 0 0.05
      vertex -0.050563562148434216 -0.036736578268279564 0.05
      vertex -0.04644655159233714 -0.04182066289742864 0.05
    endloop
  endfacet
  facet normal -0.04644655159233714 -0.04182066289742864 0
    outer loop
      vertex -0.04644655159233714 -0.04182066289742864 -0.05
      vertex -0.041820662897428654 -0.046446551592337126 -0.05
      vertex -0.041820662897428654 -0.046446551592337126 0.05
    endloop
  endfacet
  facet normal -0.04644655159233714 -0.04182066289742864 0
    outer loop
      vertex -0.04644655159233714 -0.04182066289742864 -0.05
      vertex -0.041820662897428654 -0.046446551592337126 0.05
      vertex -0.04644655159233714 -0.04182066289742864 0.05
    endloop
  endfacet
  facet normal 0 0 -1
    outer loop
      vertex 0 0 -0.05
      vertex -0.041820662897428654 -0.046446551592337126 -0.05
      vertex -0.04644655159233714 -0.04182066289742864 -0.05
    endloop
  endfacet
  facet normal 0 0 1
    outer loop
      vertex 0 0 0.05
      vertex -0.04644655159233714 -0.04182066289742864 0.05
      vertex -0.041820662897428654 -0.046446551592337126 0.05
    endloop
  endfacet
  facet normal -0.041820662897428654 -0.046446551592337126 0
    outer loop
      vertex -0.041820662897428654 -0.046446551592337126 -0.05
      vertex -0.03673657826827958 -0.05056356214843421 -0.05
      vertex -0.03673657826827958 -0.05056356214843421 0.05
    endloop
  endfacet
  facet normal -0.041820662897428654 -0.046446551592337126 0
    outer loop
      vertex -0.041820662897428654 -0.046446551592337126 -0.05
      vertex -0.03673657826827958 -0.05056356214843421 0.05
      vertex -0.041820662897428654 -0.046446551592337126 0.05
    endloop
  endfacet
  facet normal 0 0 -1
    outer loop
      vertex 0 0 -0.05
      vertex -0.03673657826827958 -0.05056356214843421 -0.05
      vertex -0.041820662897428654 -0.046446551592337126 -0.05
    endloop
  endfacet
  facet normal 0 0 1
    outer loop
      vertex 0 0 0.05
      vertex -0.041820662897428654 -0.046446551592337126 0.05
      vertex -0.03673657826827958 -0.05056356214843421 0.05
    endloop
  endfacet
  facet normal -0.03673657826827958 -0.05056356214843421 0
    outer loop
      vertex -0.03673657826827958 -0.05056356214843421 -0.05
      vertex -0.03125000000000003 -0.0541265877365274 -0.05
      vertex -0.03125000000000003 -0.0541265877365274 0.05
    endloop
  endfacet
  facet normal -0.03673657826827958 -0.05056356214843421 0
    outer loop
      vertex -0.03673657826827958 -0.05056356214843421 -0.05
      vertex -0.03125000000000003 -0.0541265877365274 0.05
      vertex -0.03673657826827958 -0.05056356214843421 0.05
    endloop
  endfacet
  facet normal 0 0 -1
    outer loop
      vertex 0 0 -0.05
      vertex -0.03125000000000003 -0.0541265877365274 -0.05
      vertex -0.03673657826827958 -0.05056356214843421 -0.05
    endloop
  endfacet
  facet normal 0 0 1
    outer loop
      vertex 0 0 0.05
      vertex -0.03673657826827958 -0.05056356214843421 0.05
      vertex -0.03125000000000003 -0.0541265877365274 0.05
    endloop
  endfacet
  facet normal -0.03125000000000003 -0.0541265877365274 0
    outer loop
      vertex -0.03125000000000003 -0.0541265877365274 -0.05
      vertex -0.025421040192237558 -0.05709659110266253 -0.05
      vertex -0.025421040192237558 -0.05709659110266253 0.05
    endloop
  endfacet
  facet normal -0.03125000000000003 -0.0541265877365274 0
    outer loop
      vertex -0.03125000000000003 -0.0541265877365274 -0.05
      vertex -0.025421040192237558 -0.05709659110266253 0.05
      vertex -0.03125000000000003 -0.0541265877365274 0.05
    endloop
  endfacet
  facet normal 0 0 -1
    outer loop
      vertex 0 0 -0.05
      vertex -0.025421040192237558 -0.05709659110266253 -0.05
      vertex -0.03125000000000003 -0.0541265877365274 -0.05
    endloop
  endfacet
  facet normal 0 0 1
    outer loop
      vertex 0 0 0.05
      vertex -0.03125000000000003 -0.0541265877365274 0.05
      vertex -0.025421040192237558 -0.05709659110266253 0.05
    endloop
  endfacet
  facet normal -0.025421040192237558 -0.05709659110266253 0
    outer loop
      vertex -0.025421040192237558 -0.05709659110266253 -0.05
      vertex -0.019313562148434223 -0.059441032268447096 -0.05
      vertex -0.019313562148434223 -0.059441032268447096 0.05
    endloop
  endfacet
  facet normal -0.025421040192237558 -0.05709659110266253 0
    outer loop
      vertex -0.025421040192237558 -0.05709659110266253 -0.05
      vertex -0.019313562148434223 -0.059441032268447096 0.05
      vertex -0.025421040192237558 -0.05709659110266253 0.05
    endloop
  endfacet
  facet normal 0 0 -1
    outer loop
      vertex 0 0 -0.05
      vertex -0.019313562148434223 -0.059441032268447096 -0.05
      vertex -0.025421040192237558 -0.05709659110266253 -0.05
    endloop
  endfacet
  facet normal 0 0 1
    outer loop
      vertex 0 0 0.05
      vertex -0.025421040192237558 -0.05709659110266253 0.05
      vertex -0.019313562148434223 -0.059441032268447096 0.05
    endloop
  endfacet
  facet normal -0.019313562148434223 -0.059441032268447096 0
    outer loop
      vertex -0.019313562148434223 -0.059441032268447096 -0.05
      vertex -0.012994480676109987 -0.06113422504586285 -0.05
      vertex -0.012994480676109987 -0.06113422504586285 0.05
    endloop
  endfacet
  facet normal -0.019313562148434223 -0.059441032268447096 0
    outer loop
      vertex -0.019313562148434223 -0.059441032268447096 -0.05
      vertex -0.012994480676109987 -0.06113422504586285 0.05
      vertex -0.019313562148434223 -0.059441032268447096 0.05
    endloop
  endfacet
  facet normal 0 0 -1
    outer loop
      vertex 0 0 -0.05
      vertex -0.012994480676109987 -0.06113422504586285 -0.05
      vertex -0.019313562148434223 -0.059441032268447096 -0.05
    endloop
  endfacet
  facet normal 0 0 1
    outer loop
      vertex 0 0 0.05
      vertex -0.019313562148434223 -0.059441032268447096 0.05
      vertex -0.012994480676109987 -0.06113422504586285 0.05
    endloop
  endfacet
  facet normal -0.012994480676109987 -0.06113422504586285 0
    outer loop
      vertex -0.012994480676109987 -0.06113422504586285 -0.05
      vertex -0.00653302895422839 -0.06215761846051708 -0.05
      vertex -0.00653302895422839 -0.06215761846051708 0.05
    endloop
  endfacet
  facet normal -0.012994480676109987 -0.06113422504586285 0
    outer loop
      vertex -0.012994480676109987 -0.06113422504586285 -0.05
      vertex -0.00653302895422839 -0.06215761846051708 0.05
      vertex -0.012994480676109987 -0.06113422504586285 0.05
    endloop
  endfacet
  facet normal 0 0 -1
    outer loop
      vertex 0 0 -0.05
      vertex -0.00653302895422839 -0.06215761846051708 -0.05
      vertex -0.012994480676109987 -0.06113422504586285 -0.05
    endloop
  endfacet
  facet normal 0 0 1
    outer loop
      vertex 0 0 0.05
      vertex -0.012994480676109987 -0.06113422504586285 0.05
      vertex -0.00653302895422839 -0.06215761846051708 0.05
    endloop
  endfacet
  facet normal -0.00653302895422839 -0.06215761846051708 0
    outer loop
      vertex -0.00653302895422839 -0.06215761846051708 -0.05
      vertex -1.1481063742006436e-17 -0.0625 -0.05
      vertex -1.1481063742006436e-17 -0.0625 0.05
    endloop
  endfacet
  facet normal -0.00653302895422839 -0.06215761846051708 0
    outer loop
      vertex -0.00653302895422839 -0.06215761846051708 -0.05
      vertex -1.1481063742006436e-17 -0.0625 0.05
      vertex -0.00653302895422839 -0.06215761846051708 0.05
    endloop
  endfacet
  facet normal 0 0 -1
    outer loop
      vertex 0 0 -0.05
      vertex -1.1481063742006436e-17 -0.0625 -0.05
      vertex -0.00653302895422839 -0.06215761846051708 -0.05
    endloop
  endfacet
  facet normal 0 0 1
    outer loop
      vertex 0 0 0.05
      vertex -0.00653302895422839 -0.06215761846051708 0.05
      vertex -1.1481063742006436e-17 -0.0625 0.05
    endloop
  endfacet
  facet normal -1.1481063742006436e-17 -0.0625 0
    outer loop
      vertex -1.1481063742006436e-17 -0.0625 -0.05
      vertex 0.006533028954228312 -0.06215761846051709 -0.05
      vertex 0.006533028954228312 -0.06215761846051709 0.05
    endloop
  endfacet
  facet normal -1.1481063742006436e-17 -0.0625 0
    outer loop
      vertex -1.1481063742006436e-17 -0.0625 -0.05
      vertex 0.006533028954228312 -0.06215761846051709 0.05
      vertex -1.1481063742006436e-17 -0.0625 0.05
    endloop
  endfacet
  facet normal 0 0 -1
    outer loop
      vertex 0 0 -0.05
      vertex 0.006533028954228312 -0.06215761846051709 -0.05
      vertex -1.1481063742006436e-17 -0.0625 -0.05
    endloop
  endfacet
  facet normal 0 0 1
    outer loop
      vertex 0 0 0.05
      vertex -1.1481063742006436e-17 -0.0625 0.05
      vertex 0.006533028954228312 -0.06215761846051709 0.05
    endloop
  endfacet
  facet normal 0.006533028954228312 -0.06215761846051709 0
    outer loop
      vertex 0.006533028954228312 -0.06215761846051709 -0.05
      vertex 0.012994480676109966 -0.06113422504586285 -0.05
      vertex 0.012994480676109966 -0.06113422504586285 0.05
    endloop
  endfacet
  facet normal 0.006533028954228312 -0.06215761846051709 0
    outer loop
      vertex 0.006533028954228312 -0.06215761846051709 -0.05
      vertex 0.012994480676109966 -0.06113422504586285 0.05
      vertex 0.006533028954228312 -0.06215761846051709 0.05
    endloop
  endfacet
  facet normal 0 0 -1
    outer loop
      vertex 0 0 -0.05
      vertex 0.012994480676109966 -0.06113422504586285 -0.05
      vertex 0.006533028954228312 -0.06215761846051709 -0.05
    endloop
  endfacet
  facet normal 0 0 1
    outer loop
      vertex 0 0 0.05
      vertex 0.006533028954228312 -0.06215761846051709 0.05
      vertex 0.012994480676109966 -0.06113422504586285 0.05
    endloop
  endfacet
  facet normal 0.012994480676109966 -0.06113422504586285 0
    outer loop
      vertex 0.012994480676109966 -0.06113422504586285 -0.05
      vertex 0.019313562148434202 -0.0594410322684471 -0.05
      vertex 0.019313562148434202 -0.0594410322684471 0.05
    endloop
  endfacet
  facet normal 0.012994480676109966 -0.06113422504586285 0
    outer loop
      vertex 0.012994480676109966 -0.06113422504586285 -0.05
      vertex 0.019313562148434202 -0.0594410322684471 0.05
      vertex 0.012994480676109966 -0.06113422504586285 0.05
    endloop
  endfacet
  facet normal 0 0 -1
    outer loop
      vertex 0 0 -0.05
      vertex 0.019313562148434202 -0.0594410322684471 -0.05
      vertex 0.012994480676109966 -0.06113422504586285 -0.05
    endloop
  endfacet
  facet normal 0 0 1
    outer loop
      vertex 0 0 0.05
      vertex 0.012994480676109966 -0.06113422504586285 0.05
      vertex 0.019313562148434202 -0.0594410322684471 0.05
    endloop
  endfacet
  facet normal 0.019313562148434202 -0.0594410322684471 0
    outer loop
      vertex 0.019313562148434202 -0.0594410322684471 -0.05
      vertex 0.025421040192237485 -0.05709659110266257 -0.05
      vertex 0.025421040192237485 -0.05709659110266257 0.05
    endloop
  endfacet
  facet normal 0.019313562148434202 -0.0594410322684471 0
    outer loop
      vertex 0.019313562148434202 -0.0594410322684471 -0.05
      vertex 0.025421040192237485 -0.05709659110266257 0.05
      vertex 0.019313562148434202 -0.0594410322684471 0.05
    endloop
  endfacet
  facet normal 0 0 -1
    outer loop
      vertex 0 0 -0.05
      vertex 0.025421040192237485 -0.05709659110266257 -0.05
      vertex 0.019313562148434202 -0.0594410322684471 -0.05
    endloop
  endfacet
  facet normal 0 0 1
    outer loop
      vertex 0 0 0.05
      vertex 0.019313562148434202 -0.0594410322684471 0.05
      vertex 0.025421040192237485 -0.05709659110266257 0.05
    endloop
  endfacet
  facet normal 0.025421040192237485 -0.05709659110266257 0
    outer loop
      vertex 0.025421040192237485 -0.05709659110266257 -0.05
      vertex 0.03125000000000001 -0.05412658773652741 -0.05
      vertex 0.03125000000000001 -0.05412658773652741 0.05
    endloop
  endfacet
  facet normal 0.025421040192237485 -0.05709659110266257 0
    outer loop
      vertex 0.025421040192237485 -0.05709659110266257 -0.05
      vertex 0.03125000000000001 -0.05412658773652741 0.05
      vertex 0.025421040192237485 -0.05709659110266257 0.05
    endloop
  endfacet
  facet normal 0 0 -1
    outer loop
      vertex 0 0 -0.05
      vertex 0.03125000000000001 -0.05412658773652741 -0.05
      vertex 0.025421040192237485 -0.05709659110266257 -0.05
    endloop
  endfacet
  facet normal 0 0 1
    outer loop
      vertex 0 0 0.05
      vertex 0.025421040192237485 -0.05709659110266257 0.05
      vertex 0.03125000000000001 -0.05412658773652741 0.05
    endloop
  endfacet
  facet normal 0.03125000000000001 -0.05412658773652741 0
    outer loop
      vertex 0.03125000000000001 -0.05412658773652741 -0.05
      vertex 0.03673657826827956 -0.05056356214843422 -0.05
      vertex 0.03673657826827956 -0.05056356214843422 0.05
    endloop
  endfacet
  facet normal 0.03125000000000001 -0.05412658773652741 0
    outer loop
      vertex 0.03125000000000001 -0.05412658773652741 -0.05
      vertex 0.03673657826827956 -0.05056356214843422 0.05
      vertex 0.03125000000000001 -0.05412658773652741 0.05
    endloop
  endfacet
  facet normal 0 0 -1
    outer loop
      vertex 0 0 -0.05
      vertex 0.03673657826827956 -0.05056356214843422 -0.05
      vertex 0.03125000000000001 -0.05412658773652741 -0.05
    endloop
  endfacet
  facet normal 0 0 1
    outer loop
      vertex 0 0 0.05
      vertex 0.03125000000000001 -0.05412658773652741 0.05
      vertex 0.03673657826827956 -0.05056356214843422 0.05
    endloop
  endfacet
  facet normal 0.03673657826827956 -0.05056356214843422 0
    outer loop
      vertex 0.03673657826827956 -0.05056356214843422 -0.05
      vertex 0.041820662897428654 -0.046446551592337126 -0.05
      vertex 0.041820662897428654 -0.046446551592337126 0.05
    endloop
  endfacet
  facet normal 0.03673657826827956 -0.05056356214843422 0
    outer loop
      vertex 0.03673657826827956 -0.05056356214843422 -0.05
      vertex 0.041820662897428654 -0.046446551592337126 0.05
      vertex 0.03673657826827956 -0.05056356214843422 0.05
    endloop
  endfacet
  facet normal 0 0 -1
    outer loop
      vertex 0 0 -0.05
      vertex 0.041820662897428654 -0.046446551592337126 -0.05
      vertex 0.03673657826827956 -0.05056356214843422 -0.05
    endloop
  endfacet
  facet normal 0 0 1
    outer loop
      vertex 0 0 0.05
      vertex 0.03673657826827956 -0.05056356214843422 0.05
      vertex 0.041820662897428654 -0.046446551592337126 0.05
    endloop
  endfacet
  facet normal 0.041820662897428654 -0.046446551592337126 0
    outer loop
      vertex 0.041820662897428654 -0.046446551592337126 -0.05
      vertex 0.04644655159233715 -0.04182066289742863 -0.05
      vertex 0.04644655159233715 -0.04182066289742863 0.05
    endloop
  endfacet
  facet normal 0.041820662897428654 -0.046446551592337126 0
    outer loop
      vertex 0.041820662897428654 -0.046446551592337126 -0.05
      vertex 0.04644655159233715 -0.04182066289742863 0.05
      vertex 0.041820662897428654 -0.046446551592337126 0.05
    endloop
  endfacet
  facet normal 0 0 -1
    outer loop
      vertex 0 0 -0.05
      vertex 0.04644655159233715 -0.04182066289742863 -0.05
      vertex 0.041820662897428654 -0.046446551592337126 -0.05
    endloop
  endfacet
  facet normal 0 0 1
    outer loop
      vertex 0 0 0.05
      vertex 0.041820662897428654 -0.046446551592337126 0.05
      vertex 0.04644655159233715 -0.04182066289742863 0.05
    endloop
  endfacet
  facet normal 0.04644655159233715 -0.04182066289742863 0
    outer loop
      vertex 0.04644655159233715 -0.04182066289742863 -0.05
      vertex 0.05056356214843421 -0.036736578268279585 -0.05
      vertex 0.05056356214843421 -0.036736578268279585 0.05
    endloop
  endfacet
  facet normal 0.04644655159233715 -0.04182066289742863 0
    outer loop
      vertex 0.04644655159233715 -0.04182066289742863 -0.05
      vertex 0.05056356214843421 -0.036736578268279585 0.05
      vertex 0.04644655159233715 -0.04182066289742863 0.05
    endloop
  endfacet
  facet normal 0 0 -1
    outer loop
      vertex 0 0 -0.05
      vertex 0.05056356214843421 -0.036736578268279585 -0.05
      vertex 0.04644655159233715 -0.04182066289742863 -0.05
    endloop
  endfacet
  facet normal 0 0 1
    outer loop
      vertex 0 0 0.05
      vertex 0.04644655159233715 -0.04182066289742863 0.05
      vertex 0.05056356214843421 -0.036736578268279585 0.05
    endloop
  endfacet
  facet normal 0.05056356214843421 -0.036736578268279585 0
    outer loop
      vertex 0.05056356214843421 -0.036736578268279585 -0.05
      vertex 0.054126587736527426 -0.03124999999999998 -0.05
      vertex 0.054126587736527426 -0.03124999999999998 0.05
    endloop
  endfacet
  facet normal 0.05056356214843421 -0.036736578268279585 0
    outer loop
      vertex 0.05056356214843421 -0.036736578268279585 -0.05
      vertex 0.054126587736527426 -0.03124999999999998 0.05
      vertex 0.05056356214843421 -0.036736578268279585 0.05
    endloop
  endfacet
  facet normal 0 0 -1
    outer loop
      vertex 0 0 -0.05
      vertex 0.054126587736527426 -0.03124999999999998 -0.05
      vertex 0.05056356214843421 -0.036736578268279585 -0.05
    endloop
  endfacet
  facet normal 0 0 1
    outer loop
      vertex 0 0 0.05
      vertex 0.05056356214843421 -0.036736578268279585 0.05
      vertex 0.054126587736527426 -0.03124999999999998 0.05
    endloop
  endfacet
  facet normal 0.054126587736527426 -0.03124999999999998 0
    outer loop
      vertex 0.054126587736527426 -0.03124999999999998 -0.05
      vertex 0.057096591102662554 -0.02542104019223751 -0.05
      vertex 0.057096591102662554 -0.02542104019223751 0.05
    endloop
  endfacet
  facet normal 0.054126587736527426 -0.03124999999999998 0
    outer loop
      vertex 0.054126587736527426 -0.03124999999999998 -0.05
      vertex 0.057096591102662554 -0.02542104019223751 0.05
      vertex 0.054126587736527426 -0.03124999999999998 0.05
    endloop
  endfacet
  facet normal 0 0 -1
    outer loop
      vertex 0 0 -0.05
      vertex 0.057096591102662554 -0.02542104019223751 -0.05
      vertex 0.054126587736527426 -0.03124999999999998 -0.05
    endloop
  endfacet
  facet normal 0 0 1
    outer loop
      vertex 0 0 0.05
      vertex 0.054126587736527426 -0.03124999999999998 0.05
      vertex 0.057096591102662554 -0.02542104019223751 0.05
    endloop
  endfacet
  facet normal 0.057096591102662554 -0.02542104019223751 0
    outer loop
      vertex 0.057096591102662554 -0.02542104019223751 -0.05
      vertex 0.059441032268447096 -0.01931356214843423 -0.05
      vertex 0.059441032268447096 -0.01931356214843423 0.05
    endloop
  endfacet
  facet normal 0.057096591102662554 -0.02542104019223751 0
    outer loop
      vertex 0.057096591102662554 -0.02542104019223751 -0.05
      vertex 0.059441032268447096 -0.01931356214843423 0.05
      vertex 0.057096591102662554 -0.02542104019223751 0.05
    endloop
  endfacet
  facet normal 0 0 -1
    outer loop
      vertex 0 0 -0.05
      vertex 0.059441032268447096 -0.01931356214843423 -0.05
      vertex 0.057096591102662554 -0.02542104019223751 -0.05
    endloop
  endfacet
  facet normal 0 0 1
    outer loop
      vertex 0 0 0.05
      vertex 0.057096591102662554 -0.02542104019223751 0.05
      vertex 0.059441032268447096 -0.01931356214843423 0.05
    endloop
  endfacet
  facet normal 0.059441032268447096 -0.01931356214843423 0
    outer loop
      vertex 0.059441032268447096 -0.01931356214843423 -0.05
      vertex 0.061134225045862856 -0.012994480676109936 -0.05
      vertex 0.061134225045862856 -0.012994480676109936 0.05
    endloop
  endfacet
  facet normal 0.059441032268447096 -0.01931356214843423 0
    outer loop
      vertex 0.059441032268447096 -0.01931356214843423 -0.05
      vertex 0.061134225045862856 -0.012994480676109936 0.05
      vertex 0.059441032268447096 -0.01931356214843423 0.05
    endloop
  endfacet
  facet normal 0 0 -1
    outer loop
      vertex 0 0 -0.05
      vertex 0.061134225045862856 -0.012994480676109936 -0.05
      vertex 0.059441032268447096 -0.01931356214843423 -0.05
    endloop
  endfacet
  facet normal 0 0 1
    outer loop
      vertex 0 0 0.05
      vertex 0.059441032268447096 -0.01931356214843423 0.05
      vertex 0.061134225045862856 -0.012994480676109936 0.05
    endloop
  endfacet
  facet normal 0.061134225045862856 -0.012994480676109936 0
    outer loop
      vertex 0.061134225045862856 -0.012994480676109936 -0.05
      vertex 0.06215761846051708 -0.0065330289542283385 -0.05
      vertex 0.06215761846051708 -0.0065330289542283385 0.05
    endloop
  endfacet
  facet normal 0.061134225045862856 -0.012994480676109936 0
    outer loop
      vertex 0.061134225045862856 -0.012994480676109936 -0.05
      vertex 0.06215761846051708 -0.0065330289542283385 0.05
      vertex 0.061134225045862856 -0.012994480676109936 0.05
    endloop
  endfacet
  facet normal 0 0 -1
    outer loop
      vertex 0 0 -0.05
      vertex 0.06215761846051708 -0.0065330289542283385 -0.05
      vertex 0.061134225045862856 -0.012994480676109936 -0.05
    endloop
  endfacet
  facet normal 0 0 1
    outer loop
      vertex 0 0 0.05
      vertex 0.061134225045862856 -0.012994480676109936 0.05
      vertex 0.06215761846051708 -0.0065330289542283385 0.05
    endloop
  endfacet
  facet normal 0.06215761846051708 -0.0065330289542283385 0
    outer loop
      vertex 0.06215761846051708 -0.0065330289542283385 -0.05
      vertex 0.0625 -7.081923622059975e-17 -0.05
      vertex 0.0625 -7.081923622059975e-17 0.05
    endloop
  endfacet
  facet normal 0.06215761846051708 -0.0065330289542283385 0
    outer loop
      vertex 0.06215761846051708 -0.0065330289542283385 -0.05
      vertex 0.0625 -7.081923622059975e-17 0.05
      vertex 0.06215761846051708 -0.0065330289542283385 0.05
    endloop
  endfacet
  facet normal 0 0 -1
    outer loop
      vertex 0 0 -0.05
      vertex 0.0625 -7.081923622059975e-17 -0.05
      vertex 0.06215761846051708 -0.0065330289542283385 -0.05
    endloop
  endfacet
  facet normal 0 0 1
    outer loop
      vertex 0 0 0.05
      vertex 0.06215761846051708 -0.0065330289542283385 0.05
      vertex 0.0625 -7.081923622059975e-17 0.05
    endloop
  endfacet
endsolid cylinder
